<svg xmlns="http://www.w3.org/2000/svg" width="30.764" height="31" viewBox="0 0 30.764 31">
  <path id="Path_110" data-name="Path 110" d="M134.908-314.293a4.449,4.449,0,0,1-.869.072c-1.139-.016-2.365-.43-3.174.62a3.736,3.736,0,0,0-.625,1.538,5.538,5.538,0,0,0-.217,1.8c.943.125,1.915.005,2.869.061.22.013.759-.032.851.178.068.153-.1.629-.124.792-.148.815-.521,1.59-.671,2.408q-.1.563-.239,1.118a3.071,3.071,0,0,1-.338,1.08c-.205.217-.849.1-1.14.081a8.854,8.854,0,0,0-1.394-.1c-.09.875-.047,1.8-.08,2.678-.113,3.053-.887,6.078-.9,9.132-.21-.017-.437-.014-.653-.019-1.489-.036-3.023-.174-4.5-.1,0-.828.056-1.641.1-2.466.075-1.5.02-3,.107-4.5.044-.763.078-1.521.106-2.284a14.676,14.676,0,0,0,.17-2.318c-.76-.085-1.555.02-2.322-.02a5,5,0,0,1-1.784-.14c-.4-.207-.12-1.19-.1-1.618a15.731,15.731,0,0,1,.3-1.8c.056-.321.106-.646.141-.97.05-.466-.036-.835.5-.911a16.5,16.5,0,0,1,2.525-.22q.443,0,.885-.01c.451-.012.438-.056.506-.495a16.778,16.778,0,0,1,.333-1.758,28.045,28.045,0,0,1,.805-3.054,7.314,7.314,0,0,1,1.956-2.452,5.526,5.526,0,0,1,2.964-1.416,7.649,7.649,0,0,1,3.443.027c.182.054.62.127.741.273s.061.552.068.748c.023.621.068,1.232.063,1.854-.005.59,0,1.181,0,1.771v.023c0,.316.013.341-.3.4m3.108-4.612a3.7,3.7,0,0,0-.3-1.861,2.24,2.24,0,0,0-.372-.473,3.566,3.566,0,0,0-2.046-.8,58.934,58.934,0,0,0-6.185-.227c-2.115-.053-4.225-.046-6.339-.044-1.923,0-3.822.151-5.739.159-1.964.008-3.987-.088-5.939.1a3.561,3.561,0,0,0-2.351.778,4.434,4.434,0,0,0-.893,2.4c-.235,1.247-.217,2.566-.343,3.829a52.053,52.053,0,0,0-.2,5.235c0,.937.055,1.85.078,2.784.06,2.421.039,4.207.032,6.3-.009,2.676-.772,8.464,3.1,8.832,2.053.2,4.131.282,6.19.425,2.1.146,4.213.161,6.32.142,2.064-.019,4.127-.088,6.19-.1a42.419,42.419,0,0,0,6.258-.315,1.514,1.514,0,0,0,1.026-.515,3.038,3.038,0,0,0,.512-1.084,10.186,10.186,0,0,0,.368-2.752c.045-.937.139-1.871.2-2.805.07-1.02.208-2.033.261-3.053.192-3.745.233-7.494.226-11.228-.005-2.229-.033-3.468-.06-5.729" transform="translate(-107.313 322.315)" fill="#005b5d"/>
</svg>
