<svg xmlns="http://www.w3.org/2000/svg" width="31.496" height="30.845" viewBox="0 0 31.496 30.845">
  <path id="Path_123" data-name="Path 123" d="M33.5,12.732C32.815,8.5,30.323,5.416,25.97,4.519c-2.232-.46-12.312-.044-14.948.4-5.129.875-8.285,3.456-8.562,8.623C2.227,17.755,2.338,22,2.443,26.224a8.54,8.54,0,0,0,4.165,7.56,12.045,12.045,0,0,0,7.261,1.324c2.033,0,4.065.072,6.087-.022a59.479,59.479,0,0,0,6.281-.587c3.251-.5,6.524-2.586,6.956-6.951.21-2.088.521-4.17.559-6.264A48.365,48.365,0,0,0,33.5,12.732ZM18.072,27.769c-4.06-.227-7.892-3.024-8.031-7.787S12.705,13.74,14.328,13a8.289,8.289,0,0,1,8.978,1.362,7.139,7.139,0,0,1,2.581,5.405C25.876,24.03,22.1,28,18.072,27.769Zm9.3-15a2.554,2.554,0,0,1-2.47-2.182,2.085,2.085,0,0,1,1.983-2.01,2.463,2.463,0,0,1,2.226,2.454A1.775,1.775,0,0,1,27.377,12.765Zm-4.985,6.984c-.006,2.271-1.938,4.536-4.06,4.525a4.537,4.537,0,0,1-4.73-3.938,3.993,3.993,0,0,1,4.109-4.481C20.215,15.723,22.392,17.539,22.392,19.749Z" transform="translate(-2.322 -4.318)" fill="#005b5d"/>
</svg>
