<svg
  width="21"
  height="29"
  viewBox="0 0 21 29"
  xmlns="http://www.w3.org/2000/svg"
  class="jsx-3508574406 logo"
>
  <path
    d="M5.45702 0.305664H0V24.2529H5.45702V0.305664Z"
    fill="#F15922"
    class="jsx-3508574406"
  ></path>
  <path
    fill-rule="evenodd"
    clip-rule="evenodd"
    d="M18.8221 24.529C18.1476 24.2534 17.8104 23.886 17.5651 23.6716C19.9564 21.9261 20.7535 20.0887 20.7535 14.4847V8.5132C20.7535 5.26716 20.263 0 13.8555 0C7.4788 0 6.98828 5.66526 6.98828 9.24815V16.1996C6.98828 23.3347 10.6672 24.1922 12.7212 24.5903C13.8862 27.2851 15.2351 28.6325 18.3009 29L20.9987 24.9271C20.9987 24.9271 19.8337 24.9578 18.8221 24.529ZM15.9709 18.5269C15.9709 18.8944 15.9709 19.0475 15.9096 19.1394C15.9096 19.17 15.787 19.4456 15.511 19.4456C15.0205 19.4456 14.2848 19.4456 13.8862 19.4456C13.4877 19.4456 12.7519 19.4456 12.2614 19.4456C11.9854 19.4456 11.8935 19.1394 11.8628 19.1394C11.8015 19.0475 11.8015 18.8944 11.8015 18.5269V10.2893C11.8015 9.92186 11.8935 9.40127 12.3533 8.69694C12.5373 8.42133 12.8745 7.99261 12.9971 7.38015C13.0891 6.98205 13.0891 6.18585 13.0891 5.42028C13.0891 4.37909 13.0585 4.22598 13.0891 4.13411C13.1198 4.04224 13.3037 4.07286 13.365 4.07286C13.6716 4.07286 13.8862 4.07286 13.8862 4.07286C13.8862 4.07286 14.0702 4.07286 14.4074 4.07286C14.4687 4.07286 14.6526 4.04224 14.6833 4.13411C14.714 4.22598 14.6833 4.37909 14.6833 5.42028C14.6833 6.18585 14.6833 6.98205 14.7753 7.38015C14.9286 7.96199 15.2658 8.39071 15.4191 8.69694C15.8483 9.40127 15.9709 9.92186 15.9709 10.2893V18.5269Z"
    fill="#f15922"
    class="jsx-3508574406"
  ></path>
</svg>
