<svg xmlns="http://www.w3.org/2000/svg" width="30.938" height="30.999" viewBox="0 0 30.938 30.999">
  <path id="twitter" d="M220.955,298.825q0,.873,0,1.746c-.007,2.652-.047,5.3-.155,7.952-.1,2.559-.029,5.122-.152,7.678a10.189,10.189,0,0,1-.369,2.752c-.244.731-.517,1.234-1.318,1.409a10.01,10.01,0,0,1-1.872.072c-1.663.044-3.323.131-4.988.143-2.063.014-4.126.084-6.19.1-2.107.019-4.217,0-6.32-.142-2.058-.143-4.137-.23-6.19-.425-3.871-.369-3.366-6.233-3.358-8.909.007-2.094.007-3.8.064-6.217.032-1.346.084-1.853.084-2.79a52.205,52.205,0,0,1,.2-5.235c.126-1.263.108-2.582.343-3.829a4.435,4.435,0,0,1,.892-2.4,3.565,3.565,0,0,1,2.352-.778c1.951-.192,3.94-.242,5.9-.25,1.918-.007,3.85-.009,5.773-.011,2.115,0,4.225-.01,6.339.043a58.955,58.955,0,0,1,6.186.227,3.567,3.567,0,0,1,2.046.8,2.258,2.258,0,0,1,.372.473,3.7,3.7,0,0,1,.3,1.861c.027,2.26.055,3.5.06,5.729Zm-2.851-.208a18.865,18.865,0,0,0-1.967.37c-.075-.442.326-.961.438-1.383a2.082,2.082,0,0,0,.07-1.349,4.44,4.44,0,0,0-1.128.572c-.311.182-.61.574-.935.686-.457-.707-.624-1.506-1.369-2.007a4.31,4.31,0,0,0-2.593-.549,3.353,3.353,0,0,0-3.119,2.364,8.605,8.605,0,0,0-.036,3.19,6.594,6.594,0,0,1-1.155-.5c-.359-.165-.74-.286-1.092-.463a15.41,15.41,0,0,1-2.045-1.194c-.68-.49-1.269-1.093-1.924-1.614s-1.389-.983-2.1-1.443c-.4-.258-.818-.487-1.217-.747-.311-.2-.575-.461-.867-.687-.2-.159-.207-.18-.329.037a1.658,1.658,0,0,0-.138.477,8.184,8.184,0,0,0-.044,2.013,13.863,13.863,0,0,0,.569,3.147,6.887,6.887,0,0,0,.268.833c.1.239.3.441.376.687-.364.19-.927-.182-1.249-.339a9.975,9.975,0,0,0-1.689-.718,3.614,3.614,0,0,0,.689,3.3,12.889,12.889,0,0,0,1.555,1.511c.547.494-.286.606-.694.668-.228.034-.817-.034-1,.106s-.05.433.011.618a3.858,3.858,0,0,0,1.12,1.643,4.454,4.454,0,0,0,1.54.8c.738.271,3.942,1.363,3.91,1.383-1.425.936-3.848.7-4.649.7-.995,0-2.371-.083-3.115.012a13.244,13.244,0,0,0,2.449,2.854,7.525,7.525,0,0,0,1.47,1.146,8.5,8.5,0,0,0,1.686.627,15.734,15.734,0,0,0,3.688.469,20.618,20.618,0,0,0,4.063-.2,8.946,8.946,0,0,0,5.393-3.072,8.092,8.092,0,0,0,1.559-3.108c.368-1.277.692-2.562.942-3.868.127-.658.235-1.318.3-1.985.058-.61,0-1.234.094-1.839.085-.565.649-.744,1.049-1.109a4.351,4.351,0,0,0,1-1.3,2.166,2.166,0,0,0,.281-.737l-.062,0Z" transform="translate(-190.018 -289.686)" fill="#005b5d"/>
</svg>
