<svg xmlns="http://www.w3.org/2000/svg" width="31.795" height="22.045" viewBox="0 0 31.795 22.045">
  <path id="Subtraction_2" data-name="Subtraction 2" d="M-323.865,3183.889a2.513,2.513,0,0,1-.892-.156,4.613,4.613,0,0,1-3.21-3.97,5.84,5.84,0,0,0-.183-1c-.058-.239-.118-.484-.154-.728-.1-.687-.191-1.389-.277-2.067-.048-.376-.1-.8-.157-1.215-.024-.175-.053-.353-.082-.524-.047-.281-.1-.571-.118-.858-.044-.594-.056-1.18-.06-1.879,0-.264.007-.531.016-.79.011-.33.022-.67.012-1a12.912,12.912,0,0,1,.247-2.84,3.276,3.276,0,0,1,1.193-1.925,6.719,6.719,0,0,1,3.625-1.583c1.566-.177,3.184-.34,4.808-.484.168-.015.351-.022.56-.022s.446.008.663.016l.051,0,.3.01c1.767.046,3.357.091,4.862.137.361.011.727.026,1.082.041h.023c.534.022,1.085.044,1.628.052.185,0,.385,0,.628,0,.319,0,.638,0,.957,0s.641-.005.955-.005.6,0,.864.008l.492.009.128,0a27.959,27.959,0,0,1,2.928.152,4.21,4.21,0,0,1,3.049,2.164,9.115,9.115,0,0,1,1.172,3.337c.2,1.133.334,2.3.463,3.425l.039.339a15.911,15.911,0,0,1-.181,3.836l-.013.1c-.076.583-.146,1.175-.213,1.748q-.064.544-.13,1.088a3.7,3.7,0,0,1-2.132,3.045,10.238,10.238,0,0,1-4.047,1.1c-1.658.092-3.161.135-4.731.135-1.193,0-2.416-.025-3.739-.077l-.968.028-.089,0c-1.116.032-2.505.071-3.907.122-.861.031-1.764.072-2.49.1l-.063,0c-.925.041-1.881.084-2.82.115Zm6.79-15.306a.373.373,0,0,0-.277.112.63.63,0,0,0-.137.471c.023.6.065,1.208.1,1.729.026.359.059.72.09,1.07.065.717.131,1.459.147,2.19.014.693-.028,1.4-.07,2.077-.018.3-.037.608-.051.911a.818.818,0,0,0,.132.613.381.381,0,0,0,.292.114,1.173,1.173,0,0,0,.452-.115,4.546,4.546,0,0,0,.767-.427l.552-.383.079-.055a29.237,29.237,0,0,1,3.839-2.385c.467-.228.929-.476,1.375-.715l.133-.071.026-.014c.245-.131.5-.266.489-.6a.742.742,0,0,0-.512-.658c-.166-.079-.332-.167-.492-.251l-.152-.08-.974-.508c-1.043-.544-2.121-1.107-3.181-1.67-.37-.2-.742-.405-1.1-.606-.387-.217-.787-.441-1.191-.654A.738.738,0,0,0-317.075,3168.583Z" transform="translate(329.5 -3162.344)" fill="#005b5d" stroke="rgba(0,0,0,0)" stroke-width="1"/>
</svg>
