<svg width="443" height="943" viewBox="0 0 443 943" fill="none" xmlns="http://www.w3.org/2000/svg">
<path d="M302.364 918.851H141.438C140.985 918.851 140.531 918.821 140.078 918.781C73.6603 912.423 62.7116 852.011 66.197 820.965L66.1452 469.698C66.1452 411.253 79.9574 392.218 84.5182 387.529C114.773 346.747 121.225 297.323 121.277 296.826L147.515 83.0239C148.072 78.3745 153.424 74.7981 159.513 75.4041C165.564 75.8313 170.022 79.9541 169.451 84.6035L143.226 298.436C142.954 300.631 136.191 352.46 103.254 396.48C102.891 396.967 102.464 397.424 101.984 397.851C102.023 397.851 88.198 412.932 88.198 469.708V821.71C88.0814 823.161 80.8644 895.574 142.164 901.962H301.665C362.964 895.564 355.747 823.161 355.67 822.425L355.631 469.708C355.631 418.356 340.626 396.569 340.484 396.361C309.258 359.702 300.939 301.009 300.602 298.525L275.336 85.9248C274.792 81.2754 279.249 77.1625 285.313 76.7452C291.416 76.2882 296.741 79.7554 297.285 84.3949L322.513 296.876C322.564 297.333 330.624 353.92 359.323 387.658C360.425 389.128 377.645 413.23 377.645 469.708V821.71C381.091 852.031 370.142 912.443 303.725 918.791C303.284 918.821 302.818 918.851 302.364 918.851Z" fill="black"/>
<path d="M366.631 480.836H77.1719V497.725H366.631V480.836Z" fill="black"/>
<path d="M366.644 766.417H76.8088V783.315H366.644V766.417Z" fill="black"/>
<path d="M220.762 101.941C220.619 101.941 220.464 101.941 220.308 101.931C216.991 101.832 213.894 100.58 211.912 98.5238L206.794 93.2386L201.87 96.9641C197.776 100.064 191.258 100.223 186.905 97.3317L173.093 88.1521L155.691 93.9738C151.493 95.3746 146.622 94.6295 143.408 92.1458C140.208 89.6423 139.366 85.8871 141.27 82.6981L147.71 71.9687C143.24 63.6634 142.799 51.8015 142.799 51.6525C142.799 38.0023 157.272 26.9153 175.062 26.9153H268.715C286.505 26.9153 300.978 38.0123 300.978 51.6525C300.978 51.8015 300.551 63.6534 296.081 71.9588L302.909 83.2544C304.218 84.6452 304.995 86.354 304.995 88.2018C304.995 92.8711 300.058 96.6462 293.969 96.6462C293.904 96.6462 293.826 96.6462 293.748 96.6462C292.025 96.6462 290.289 96.3482 288.695 95.7124L270.296 88.4204L256.873 97.3416C252.532 100.223 246.002 100.054 241.907 96.974L236.284 92.7121L229.028 99.0603C226.955 100.898 223.923 101.941 220.762 101.941ZM208.09 71.9588C208.362 71.9588 208.647 71.9588 208.932 71.9786C212.119 72.1674 215.035 73.4092 216.939 75.3663L221.474 80.0554L227.434 74.8298C229.43 73.0814 232.293 72.0382 235.325 71.9588C238.357 71.7899 241.298 72.7535 243.462 74.3828L250.161 79.4594L261.511 71.8992C264.66 69.803 269.065 69.2764 272.836 70.4487C273.16 68.6704 274.222 66.9915 275.958 65.6702C276.93 64.18 278.951 55.4276 278.951 51.6624C278.951 47.3409 274.365 43.8141 268.728 43.8141H175.075C169.439 43.8141 164.839 47.3309 164.839 51.6624C164.839 55.4276 166.873 64.18 168.467 66.2464C170.074 67.4783 170.942 68.879 171.188 70.3792C174.958 69.2864 179.208 69.8725 182.279 71.8992L193.63 79.4594L200.328 74.3828C202.414 72.8231 205.187 71.9588 208.09 71.9588Z" fill="black"/>
<rect x="88" y="498" width="268" height="268" fill="#E08478"/>
<path d="M98.72 758.405V756.635L103.265 749.78L104.27 750.575L100.025 756.995L100.16 757.265H104.435V753.245H105.785V757.265H107.24V758.405H105.785V761H104.435V758.405H98.72ZM109.169 763.355L108.014 762.92L109.409 759.05L110.594 759.5L109.169 763.355ZM113.71 761L118.345 751.415L118.255 751.28H113.47V753.02H112.27V750.05H119.62V751.79L115.21 761H113.71ZM123.118 755.93C122.548 755.93 122.083 755.8 121.723 755.54C121.373 755.28 121.113 754.935 120.943 754.505C120.783 754.075 120.703 753.61 120.703 753.11V752.72C120.703 752.18 120.788 751.7 120.958 751.28C121.128 750.85 121.393 750.515 121.753 750.275C122.113 750.025 122.568 749.9 123.118 749.9C123.678 749.9 124.133 750.025 124.483 750.275C124.843 750.515 125.108 750.85 125.278 751.28C125.448 751.7 125.533 752.18 125.533 752.72V753.11C125.533 753.61 125.448 754.075 125.278 754.505C125.118 754.935 124.863 755.28 124.513 755.54C124.163 755.8 123.698 755.93 123.118 755.93ZM123.928 761L128.068 750.05H129.208L125.068 761H123.928ZM123.118 754.94C124.028 754.94 124.483 754.27 124.483 752.93C124.483 752.22 124.368 751.705 124.138 751.385C123.908 751.055 123.568 750.89 123.118 750.89C122.668 750.89 122.328 751.055 122.098 751.385C121.868 751.705 121.753 752.215 121.753 752.915C121.753 754.265 122.208 754.94 123.118 754.94ZM129.958 761.15C129.388 761.15 128.923 761.02 128.563 760.76C128.213 760.5 127.953 760.155 127.783 759.725C127.623 759.295 127.543 758.83 127.543 758.33V757.94C127.543 757.4 127.628 756.92 127.798 756.5C127.968 756.07 128.233 755.735 128.593 755.495C128.953 755.245 129.408 755.12 129.958 755.12C130.518 755.12 130.973 755.245 131.323 755.495C131.683 755.735 131.948 756.07 132.118 756.5C132.288 756.92 132.373 757.4 132.373 757.94V758.33C132.373 758.83 132.288 759.295 132.118 759.725C131.958 760.155 131.703 760.5 131.353 760.76C131.003 761.02 130.538 761.15 129.958 761.15ZM129.958 760.16C130.868 760.16 131.323 759.49 131.323 758.15C131.323 757.44 131.208 756.925 130.978 756.605C130.748 756.275 130.408 756.11 129.958 756.11C129.508 756.11 129.168 756.275 128.938 756.605C128.708 756.925 128.593 757.435 128.593 758.135C128.593 759.485 129.048 760.16 129.958 760.16Z" fill="black"/>
<path d="M314.485 761.27C313.665 761.27 312.97 761.11 312.4 760.79C311.83 760.47 311.395 760.045 311.095 759.515C310.805 758.985 310.66 758.41 310.66 757.79H312.07C312.07 758.47 312.285 759.01 312.715 759.41C313.155 759.81 313.745 760.01 314.485 760.01C315.225 760.01 315.81 759.81 316.24 759.41C316.68 759.01 316.9 758.47 316.9 757.79C316.9 757.11 316.68 756.56 316.24 756.14C315.81 755.72 315.23 755.51 314.5 755.51C314.19 755.51 313.92 755.55 313.69 755.63C313.47 755.7 313.275 755.79 313.105 755.9L312.385 754.61L316.57 751.55L316.42 751.28H311.095V750.05H317.77V752.045L314.53 754.4H314.545C315.345 754.4 316.025 754.55 316.585 754.85C317.145 755.15 317.57 755.55 317.86 756.05C318.16 756.55 318.31 757.095 318.31 757.685V757.895C318.31 758.475 318.16 759.025 317.86 759.545C317.57 760.055 317.14 760.47 316.57 760.79C316.01 761.11 315.315 761.27 314.485 761.27ZM323.699 761.27C322.879 761.27 322.184 761.11 321.614 760.79C321.044 760.47 320.609 760.045 320.309 759.515C320.019 758.985 319.874 758.41 319.874 757.79H321.284C321.284 758.47 321.499 759.01 321.929 759.41C322.369 759.81 322.959 760.01 323.699 760.01C324.439 760.01 325.024 759.81 325.454 759.41C325.894 759.01 326.114 758.47 326.114 757.79C326.114 757.11 325.894 756.56 325.454 756.14C325.024 755.72 324.444 755.51 323.714 755.51C323.404 755.51 323.134 755.55 322.904 755.63C322.684 755.7 322.489 755.79 322.319 755.9L321.599 754.61L325.784 751.55L325.634 751.28H320.309V750.05H326.984V752.045L323.744 754.4H323.759C324.559 754.4 325.239 754.55 325.799 754.85C326.359 755.15 326.784 755.55 327.074 756.05C327.374 756.55 327.524 757.095 327.524 757.685V757.895C327.524 758.475 327.374 759.025 327.074 759.545C326.784 760.055 326.354 760.47 325.784 760.79C325.224 761.11 324.529 761.27 323.699 761.27ZM336.656 761.27C335.966 761.27 335.366 761.15 334.856 760.91C334.356 760.67 333.941 760.35 333.611 759.95C333.281 759.54 333.031 759.09 332.861 758.6C332.701 758.11 332.621 757.62 332.621 757.13V756.86C332.621 756.35 332.701 755.85 332.861 755.36C333.031 754.87 333.281 754.43 333.611 754.04C333.951 753.64 334.371 753.32 334.871 753.08C335.371 752.84 335.956 752.72 336.626 752.72C337.296 752.72 337.896 752.845 338.426 753.095C338.966 753.345 339.396 753.7 339.716 754.16C340.046 754.61 340.231 755.145 340.271 755.765H338.891C338.821 755.265 338.591 754.85 338.201 754.52C337.811 754.18 337.286 754.01 336.626 754.01C336.056 754.01 335.581 754.14 335.201 754.4C334.821 754.66 334.536 755.015 334.346 755.465C334.156 755.915 334.061 756.425 334.061 756.995C334.061 757.545 334.156 758.05 334.346 758.51C334.536 758.96 334.821 759.32 335.201 759.59C335.591 759.85 336.076 759.98 336.656 759.98C337.326 759.98 337.866 759.81 338.276 759.47C338.686 759.12 338.921 758.69 338.981 758.18H340.361C340.331 758.81 340.146 759.355 339.806 759.815C339.476 760.275 339.036 760.635 338.486 760.895C337.946 761.145 337.336 761.27 336.656 761.27ZM342.408 761V751.19H341.298V750.05H343.848V761H342.408Z" fill="black"/>
<path d="M170.547 720.424L166.085 700.296L169.974 699.434L174.436 719.561L170.547 720.424ZM172.17 702.069L176.177 701.181L176.618 703.172C176.643 702.397 176.842 701.779 177.215 701.319C177.589 700.86 178.189 700.538 179.017 700.354C179.689 700.206 180.302 700.234 180.855 700.439C181.421 700.625 181.864 700.961 182.185 701.447C182.397 700.777 182.684 700.263 183.047 699.904C183.407 699.529 183.961 699.258 184.711 699.092C186.054 698.794 187.076 699.002 187.775 699.716C188.486 700.41 189.015 701.539 189.361 703.101L192.093 715.647L187.969 716.561L185.175 703.955C184.929 702.846 184.525 702.354 183.962 702.479C183.572 702.565 183.334 702.823 183.249 703.251C183.16 703.664 183.174 704.136 183.292 704.667L186.025 716.992L181.924 717.901L179.129 705.295C179.022 704.811 178.881 704.433 178.706 704.16C178.546 703.884 178.302 703.782 177.974 703.855C177.553 703.949 177.303 704.225 177.224 704.685C177.142 705.129 177.166 705.641 177.294 706.219L179.979 718.332L175.973 719.221L172.17 702.069ZM189.927 698.133L194.097 697.208L194.3 698.122C194.731 697.256 195.469 696.707 196.516 696.475C197.844 696.181 198.864 696.422 199.577 697.198C200.305 697.97 200.845 699.146 201.194 700.723L202.602 707.073C202.9 708.416 203.066 709.535 203.1 710.429C203.131 711.307 202.94 712.07 202.526 712.719C202.11 713.352 201.362 713.789 200.284 714.028C199.253 714.256 198.408 714.14 197.749 713.68L198.658 717.78L194.487 718.705L189.927 698.133ZM198.219 711.142C198.594 711.059 198.798 710.834 198.831 710.466C198.864 710.098 198.808 709.586 198.663 708.93L197.047 701.643C196.915 701.049 196.76 700.608 196.582 700.32C196.403 700.032 196.119 699.931 195.728 700.018C195.088 700.16 194.899 700.824 195.162 702.011L196.83 709.533C196.958 710.111 197.121 710.55 197.318 710.85C197.528 711.131 197.828 711.229 198.219 711.142ZM210.289 711.809C208.524 712.201 207.152 711.997 206.172 711.198C205.191 710.399 204.488 709.039 204.062 707.118L202.535 700.229C202.185 698.652 202.372 697.348 203.094 696.32C203.817 695.291 204.99 694.596 206.615 694.236C209.911 693.506 211.917 694.757 212.634 697.99L212.909 699.232C213.186 700.482 213.396 701.501 213.538 702.289L207.586 703.608L208.324 706.935C208.455 707.529 208.622 707.984 208.823 708.3C209.021 708.6 209.323 708.705 209.729 708.615C210.041 708.546 210.239 708.404 210.322 708.188C210.422 707.97 210.453 707.742 210.417 707.504C210.392 707.247 210.328 706.884 210.224 706.416L209.856 704.752L213.933 703.848L214.151 704.832C214.594 706.832 214.531 708.394 213.961 709.521C213.403 710.627 212.18 711.39 210.289 711.809ZM209.056 701.144L208.567 698.941C208.294 697.707 207.852 697.158 207.243 697.293C206.556 697.445 206.349 698.138 206.623 699.372L207.111 701.575L209.056 701.144ZM213.083 692.999L217.184 692.09L217.604 693.988C217.658 693.271 217.896 692.678 218.316 692.208C218.748 691.718 219.339 691.391 220.089 691.224L220.847 694.645C220.27 694.774 219.648 695.001 218.983 695.329C218.331 695.638 218.028 695.901 218.077 696.12L220.986 709.241L216.885 710.15L213.083 692.999ZM220.86 690.07L220.226 687.212L224.326 686.303L224.96 689.161L220.86 690.07ZM224.916 708.37L221.114 691.218L225.215 690.309L229.017 707.461L224.916 708.37ZM233.795 706.598C232.468 706.893 231.457 706.658 230.763 705.894C230.081 705.111 229.559 703.899 229.195 702.259C228.897 700.916 228.841 699.847 229.025 699.052C229.225 698.254 229.601 697.621 230.153 697.155C230.702 696.673 231.572 696.086 232.762 695.396L233.804 694.772L233.794 694.725L233.414 693.015C233.314 692.562 233.144 692.239 232.905 692.046C232.677 691.834 232.439 691.756 232.189 691.812C231.97 691.86 231.797 692.005 231.671 692.246C231.559 692.484 231.542 692.774 231.618 693.118L231.847 694.149L227.863 695.032L227.739 694.47C227.365 692.783 227.489 691.493 228.11 690.602C228.748 689.706 229.957 689.061 231.738 688.667C233.159 688.352 234.398 688.47 235.455 689.023C236.508 689.559 237.185 690.507 237.486 691.866L240.385 704.941L236.308 705.845L235.856 703.806C235.809 704.554 235.602 705.174 235.235 705.664C234.885 706.152 234.405 706.463 233.795 706.598ZM234.706 703.053C235.018 702.984 235.209 702.811 235.279 702.533C235.36 702.236 235.36 701.9 235.277 701.525L234.217 696.746C233.66 697.115 233.272 697.512 233.055 697.937C232.854 698.359 232.824 698.89 232.966 699.53L233.454 701.733C233.679 702.748 234.096 703.188 234.706 703.053ZM241.964 704.591L237.476 684.346L241.647 683.422L246.135 703.666L241.964 704.591ZM258.16 701.197C256.332 701.602 254.912 701.442 253.898 700.716C252.885 699.99 252.155 698.619 251.709 696.604L251.272 694.636L255.232 693.758L255.788 696.265C256.01 697.265 256.441 697.694 257.081 697.552C257.44 697.472 257.668 697.315 257.763 697.081C257.855 696.831 257.846 696.456 257.735 695.957C257.59 695.3 257.392 694.779 257.143 694.392C256.889 693.989 256.607 693.675 256.294 693.449C255.994 693.204 255.464 692.846 254.704 692.376L252.586 691.026C250.952 690.012 249.958 688.708 249.605 687.115C249.224 685.396 249.325 684.005 249.909 682.942C250.505 681.859 251.56 681.15 253.075 680.814C254.887 680.412 256.299 680.608 257.31 681.399C258.318 682.176 259.049 683.587 259.503 685.633L255.402 686.542L255.072 685.165C255.014 684.9 254.889 684.706 254.698 684.584C254.523 684.459 254.302 684.426 254.037 684.485C253.724 684.554 253.509 684.692 253.391 684.899C253.273 685.105 253.247 685.357 253.312 685.654C253.458 686.31 253.983 686.906 254.889 687.443L257.731 689.173C258.395 689.583 258.961 689.99 259.428 690.394C259.891 690.783 260.304 691.282 260.668 691.889C261.029 692.481 261.308 693.222 261.506 694.113C261.945 696.097 261.912 697.685 261.407 698.879C260.913 700.054 259.831 700.826 258.16 701.197ZM267.648 699.093C266.57 699.332 265.778 699.27 265.271 698.907C264.765 698.544 264.4 697.863 264.179 696.863L261.805 686.155L260.657 686.41L259.966 683.294L261.114 683.039L260.309 679.407L264.292 678.524L265.097 682.156L266.269 681.896L266.96 685.013L265.788 685.272L267.923 694.902C267.989 695.199 268.061 695.413 268.139 695.543C268.217 695.673 268.357 695.716 268.561 695.671C268.717 695.636 268.863 695.595 269.001 695.549C269.138 695.502 269.23 695.473 269.276 695.463L269.9 698.275C269.679 698.389 269.35 698.528 268.91 698.691C268.49 698.866 268.069 699 267.648 699.093ZM276.24 697.189C272.819 697.947 270.715 696.553 269.929 693.007L268.402 686.119C268.042 684.494 268.209 683.105 268.904 681.951C269.611 680.778 270.761 680.015 272.354 679.662C273.947 679.309 275.304 679.516 276.425 680.284C277.558 681.032 278.304 682.219 278.665 683.843L280.192 690.732C280.978 694.278 279.661 696.43 276.24 697.189ZM275.538 694.025C275.866 693.953 276.082 693.782 276.187 693.513C276.291 693.244 276.298 692.906 276.208 692.5L274.348 684.112C274.127 683.112 273.696 682.683 273.055 682.825C272.415 682.967 272.205 683.538 272.427 684.538L274.287 692.926C274.377 693.332 274.526 693.635 274.734 693.835C274.942 694.035 275.21 694.098 275.538 694.025ZM286.199 694.981C284.919 695.265 283.951 695.078 283.297 694.419C282.659 693.758 282.172 692.67 281.836 691.154L279.005 678.384L283.129 677.47L285.778 689.42C285.802 689.529 285.868 689.826 285.975 690.31C286.079 690.779 286.224 691.099 286.41 691.271C286.607 691.424 286.862 691.466 287.175 691.397C287.597 691.303 287.824 691.072 287.857 690.704C287.887 690.321 287.829 689.801 287.684 689.145L287.652 689.004L285.027 677.049L289.104 676.146L292.906 693.297L288.806 694.206L288.4 692.379C288.279 693.159 288.065 693.748 287.759 694.143C287.454 694.539 286.934 694.818 286.199 694.981ZM298.126 692.336C297.049 692.575 296.256 692.513 295.75 692.15C295.243 691.787 294.879 691.106 294.658 690.106L292.284 679.398L291.135 679.653L290.445 676.537L291.593 676.282L290.788 672.65L294.771 671.767L295.576 675.399L296.748 675.139L297.438 678.256L296.267 678.515L298.402 688.145C298.468 688.442 298.54 688.656 298.618 688.786C298.696 688.916 298.836 688.959 299.039 688.914C299.195 688.879 299.342 688.838 299.479 688.792C299.616 688.745 299.708 688.716 299.755 688.706L300.379 691.518C300.158 691.632 299.828 691.771 299.389 691.934C298.969 692.109 298.548 692.243 298.126 692.336Z" fill="#255A5C"/>
<g clip-path="url(#clip0_12_90)">
<rect x="200" y="197" width="44" height="3" fill="black"/>
<path d="M213.523 192V157.625H222.84C225.34 157.625 227.156 158.237 228.289 159.461C229.435 160.672 230.008 162.677 230.008 165.477V166.98C230.008 168.595 229.715 169.904 229.129 170.906C228.556 171.909 227.677 172.566 226.492 172.879C228.042 173.27 229.077 174.188 229.598 175.633C230.132 177.065 230.398 178.816 230.398 180.887C230.398 183.113 230.19 185.06 229.773 186.727C229.357 188.393 228.602 189.689 227.508 190.613C226.414 191.538 224.858 192 222.84 192H213.523ZM220.242 170.574H221.648C222.286 170.574 222.697 170.327 222.879 169.832C223.061 169.337 223.152 168.745 223.152 168.055V164.598C223.152 163.491 222.664 162.938 221.688 162.938H220.242V170.574ZM220.926 185.945C222.71 185.945 223.602 185.099 223.602 183.406V179.109C223.602 178.133 223.452 177.365 223.152 176.805C222.866 176.232 222.319 175.945 221.512 175.945H220.242V185.906C220.529 185.932 220.757 185.945 220.926 185.945Z" fill="black"/>
<path d="M213.523 238V203.625H222.84C225.34 203.625 227.156 204.237 228.289 205.461C229.435 206.672 230.008 208.677 230.008 211.477V212.98C230.008 214.595 229.715 215.904 229.129 216.906C228.556 217.909 227.677 218.566 226.492 218.879C228.042 219.27 229.077 220.188 229.598 221.633C230.132 223.065 230.398 224.816 230.398 226.887C230.398 229.113 230.19 231.06 229.773 232.727C229.357 234.393 228.602 235.689 227.508 236.613C226.414 237.538 224.858 238 222.84 238H213.523ZM220.242 216.574H221.648C222.286 216.574 222.697 216.327 222.879 215.832C223.061 215.337 223.152 214.745 223.152 214.055V210.598C223.152 209.491 222.664 208.938 221.688 208.938H220.242V216.574ZM220.926 231.945C222.71 231.945 223.602 231.099 223.602 229.406V225.109C223.602 224.133 223.452 223.365 223.152 222.805C222.866 222.232 222.319 221.945 221.512 221.945H220.242V231.906C220.529 231.932 220.757 231.945 220.926 231.945Z" fill="black"/>
</g>
<path d="M138.837 613.834C136.644 614.36 134.716 614.095 133.056 613.037C131.418 611.974 130.311 610.241 129.734 607.837L126.406 593.975C125.689 590.988 125.743 588.593 126.569 586.79C127.395 584.988 129.08 583.781 131.624 583.17C133.841 582.638 135.772 582.816 137.417 583.705C139.061 584.593 140.158 586.181 140.707 588.468L141.951 593.649L135.965 595.086L134.898 590.64C134.691 589.777 134.443 589.207 134.154 588.931C133.866 588.654 133.465 588.578 132.952 588.701C132.415 588.83 132.086 589.106 131.966 589.53C131.869 589.948 131.907 590.519 132.081 591.243L135.703 606.33C135.893 607.123 136.15 607.679 136.473 607.996C136.791 608.29 137.183 608.381 137.649 608.269C138.583 608.045 138.867 607.174 138.503 605.658L137.201 600.232L143.257 598.778L144.618 604.449C145.828 609.489 143.901 612.618 138.837 613.834ZM140.982 581.034L147.283 579.522L148.998 586.663C149.203 584.639 150.227 583.406 152.071 582.963C153.798 582.549 155.237 582.783 156.387 583.667C157.537 584.551 158.342 585.95 158.801 587.864L163.541 607.607L157.415 609.077L152.768 589.719C152.633 589.159 152.395 588.735 152.055 588.447C151.714 588.158 151.299 588.073 150.808 588.19C150.388 588.291 150.095 588.559 149.928 588.994C149.778 589.4 149.765 589.86 149.889 590.373L154.545 609.766L148.244 611.279L140.982 581.034ZM159.765 581.412L165.891 579.941L166.572 582.777C166.634 581.701 166.975 580.804 167.593 580.088C168.228 579.343 169.106 578.836 170.226 578.567L171.453 583.678C170.59 583.886 169.664 584.244 168.675 584.752C167.705 585.232 167.258 585.636 167.337 585.962L172.043 605.565L165.917 607.036L159.765 581.412ZM171.352 576.816L170.326 572.546L176.452 571.075L177.478 575.346L171.352 576.816ZM177.915 604.156L171.763 578.532L177.889 577.061L184.041 602.685L177.915 604.156ZM193.566 600.694C188.501 601.91 185.353 599.951 184.12 594.817L183.668 592.778L189.794 591.308L190.552 594.31C190.697 594.916 190.926 595.355 191.238 595.626C191.544 595.873 191.966 595.932 192.502 595.803C193.319 595.607 193.568 594.844 193.249 593.514C193.013 592.534 192.63 591.811 192.099 591.347C191.591 590.876 190.841 590.427 189.85 589.998L185.989 588.259C184.662 587.665 183.644 586.971 182.935 586.179C182.221 585.363 181.662 584.115 181.259 582.435C180.945 581.128 181.017 579.938 181.476 578.866C181.952 577.764 182.705 576.843 183.737 576.101C184.768 575.36 185.984 574.821 187.384 574.485C192.355 573.292 195.434 575.169 196.622 580.116L196.74 580.606L190.404 582.128L190.169 581.147C190.023 580.541 189.795 580.052 189.484 579.683C189.191 579.284 188.811 579.141 188.344 579.253C187.924 579.354 187.628 579.561 187.456 579.873C187.302 580.157 187.276 580.509 187.376 580.929C187.601 581.863 188.136 582.499 188.983 582.839L193.427 584.697C195.022 585.375 196.323 586.223 197.333 587.239C198.336 588.232 199.054 589.627 199.485 591.424C200.057 593.805 199.82 595.799 198.774 597.408C197.729 599.016 195.993 600.112 193.566 600.694ZM208.429 597.126C206.819 597.513 205.629 597.44 204.86 596.909C204.091 596.378 203.527 595.366 203.168 593.872L199.328 577.875L197.612 578.287L196.495 573.631L198.21 573.219L196.907 567.793L202.858 566.365L204.161 571.79L205.911 571.37L207.029 576.026L205.278 576.446L208.733 590.833C208.839 591.277 208.952 591.595 209.073 591.788C209.193 591.981 209.405 592.042 209.709 591.969C209.942 591.913 210.161 591.848 210.365 591.774C210.57 591.7 210.707 591.655 210.777 591.638L211.785 595.839C211.458 596.016 210.967 596.233 210.312 596.489C209.687 596.762 209.059 596.975 208.429 597.126ZM207.59 569.93L213.576 568.493L214.29 571.469C214.307 570.305 214.589 569.373 215.137 568.674C215.685 567.975 216.577 567.477 217.814 567.18C218.818 566.939 219.737 566.965 220.573 567.258C221.426 567.522 222.1 568.014 222.593 568.735C222.894 567.725 223.312 566.946 223.847 566.398C224.376 565.827 225.2 565.406 226.321 565.137C228.328 564.656 229.865 564.941 230.932 565.993C232.016 567.016 232.839 568.694 233.399 571.028L237.825 589.772L231.664 591.251L227.143 572.419C226.745 570.762 226.126 570.034 225.286 570.236C224.703 570.376 224.353 570.768 224.236 571.413C224.114 572.035 224.148 572.743 224.339 573.536L228.759 591.949L222.633 593.42L218.112 574.587C217.938 573.863 217.716 573.3 217.447 572.895C217.2 572.486 216.832 572.34 216.342 572.457C215.712 572.609 215.344 573.03 215.238 573.722C215.127 574.39 215.175 575.156 215.383 576.02L219.728 594.117L213.742 595.554L207.59 569.93ZM244.992 588.348C243.009 588.824 241.486 588.499 240.426 587.371C239.383 586.214 238.568 584.411 237.979 581.961C237.497 579.954 237.384 578.352 237.64 577.155C237.919 575.953 238.467 574.994 239.282 574.28C240.093 573.543 241.382 572.641 243.15 571.575L244.695 570.611L244.679 570.541L244.065 567.986C243.903 567.309 243.639 566.829 243.275 566.546C242.929 566.235 242.569 566.124 242.196 566.213C241.869 566.292 241.614 566.513 241.43 566.878C241.269 567.238 241.251 567.674 241.374 568.188L241.744 569.728L235.793 571.157L235.591 570.316C234.986 567.796 235.138 565.859 236.047 564.505C236.98 563.146 238.776 562.147 241.436 561.508C243.56 560.999 245.421 561.144 247.021 561.945C248.614 562.722 249.655 564.126 250.142 566.157L254.831 585.69L248.741 587.152L248.009 584.106C247.958 585.229 247.664 586.164 247.127 586.91C246.614 587.65 245.902 588.129 244.992 588.348ZM246.265 583.007C246.731 582.895 247.013 582.63 247.11 582.212C247.225 581.765 247.215 581.261 247.081 580.701L245.366 573.56C244.54 574.129 243.97 574.734 243.655 575.378C243.364 576.015 243.333 576.812 243.563 577.769L244.353 581.06C244.717 582.577 245.354 583.226 246.265 583.007ZM264.294 583.714C259.23 584.93 256.082 582.971 254.849 577.837L254.397 575.798L260.523 574.327L261.28 577.329C261.426 577.936 261.655 578.375 261.966 578.645C262.273 578.893 262.694 578.952 263.231 578.823C264.048 578.627 264.296 577.864 263.977 576.534C263.742 575.553 263.359 574.831 262.827 574.366C262.319 573.896 261.57 573.446 260.578 573.018L256.718 571.279C255.39 570.685 254.372 569.991 253.664 569.199C252.95 568.383 252.391 567.135 251.987 565.454C251.674 564.148 251.746 562.958 252.204 561.885C252.68 560.784 253.434 559.862 254.465 559.121C255.497 558.38 256.713 557.841 258.113 557.505C263.084 556.311 266.163 558.188 267.351 563.136L267.468 563.626L261.132 565.147L260.897 564.167C260.751 563.56 260.523 563.072 260.212 562.702C259.919 562.304 259.539 562.161 259.072 562.273C258.652 562.373 258.356 562.58 258.185 562.893C258.031 563.177 258.004 563.529 258.105 563.949C258.329 564.882 258.864 565.519 259.711 565.859L264.156 567.716C265.75 568.395 267.052 569.242 268.061 570.259C269.065 571.252 269.782 572.647 270.214 574.444C270.785 576.824 270.548 578.819 269.503 580.427C268.457 582.036 266.721 583.131 264.294 583.714ZM137.885 641.171L144.011 639.701L144.691 642.536C144.754 641.46 145.094 640.563 145.712 639.847C146.348 639.102 147.226 638.595 148.346 638.327L149.573 643.437C148.709 643.645 147.783 644.003 146.795 644.512C145.824 644.991 145.378 645.395 145.456 645.721L150.162 665.324L144.036 666.795L137.885 641.171ZM149.471 636.575L148.446 632.305L154.572 630.834L155.597 635.105L149.471 636.575ZM156.035 663.915L149.883 638.291L156.009 636.82L162.16 662.444L156.035 663.915ZM172.35 660.294C169.55 660.966 167.36 660.739 165.781 659.612C164.203 658.486 163.061 656.452 162.355 653.512L160.455 645.601C159.923 643.384 159.725 641.531 159.861 640.042C160.015 638.524 160.568 637.28 161.52 636.311C162.496 635.337 163.987 634.608 165.994 634.127C168.187 633.6 170.11 633.743 171.761 634.556C173.413 635.369 174.485 636.802 174.978 638.856L175.919 642.777L169.688 644.273L168.823 640.667C168.66 639.99 168.444 639.499 168.173 639.194C167.897 638.865 167.49 638.766 166.953 638.894C165.95 639.135 165.619 639.968 165.961 641.391L168.944 653.818C169.084 654.401 169.321 654.875 169.656 655.239C170.008 655.574 170.429 655.683 170.919 655.565C171.409 655.448 171.723 655.162 171.861 654.71C172.022 654.251 172.016 653.71 171.841 653.085L170.772 648.788L177.003 647.292L178.079 651.773C178.583 653.873 178.293 655.695 177.207 657.24C176.139 658.755 174.52 659.773 172.35 660.294ZM189.02 656.292C186.383 656.925 184.319 656.655 182.828 655.483C181.337 654.311 180.247 652.289 179.558 649.419L177.087 639.127C176.521 636.77 176.767 634.811 177.823 633.249C178.88 631.687 180.622 630.615 183.049 630.032C187.973 628.85 191.015 630.674 192.174 635.505L192.62 637.36C193.068 639.227 193.409 640.75 193.642 641.928L184.751 644.062L185.944 649.033C186.157 649.92 186.419 650.598 186.729 651.066C187.033 651.511 187.489 651.661 188.095 651.516C188.562 651.404 188.855 651.185 188.975 650.86C189.117 650.53 189.159 650.187 189.098 649.831C189.055 649.446 188.949 648.904 188.781 648.204L188.185 645.719L194.276 644.256L194.628 645.727C195.346 648.714 195.292 651.059 194.467 652.763C193.659 654.437 191.844 655.614 189.02 656.292ZM186.89 640.328L186.1 637.037C185.658 635.194 184.981 634.381 184.071 634.6C183.044 634.846 182.752 635.891 183.195 637.735L183.985 641.025L186.89 640.328ZM200.922 626.037L207.153 624.541L207.48 625.907C208.104 624.597 209.197 623.754 210.761 623.379C212.745 622.903 214.281 623.237 215.371 624.383C216.483 625.522 217.323 627.271 217.889 629.628L220.166 639.114C220.648 641.121 220.926 642.794 221.001 644.134C221.07 645.45 220.803 646.6 220.2 647.584C219.592 648.545 218.482 649.218 216.872 649.605C215.332 649.975 214.061 649.823 213.061 649.15L214.531 655.276L208.3 656.772L200.922 626.037ZM213.699 645.332C214.259 645.197 214.559 644.854 214.599 644.301C214.639 643.748 214.542 642.982 214.306 642.002L211.693 631.115C211.48 630.228 211.236 629.571 210.96 629.144C210.685 628.716 210.255 628.573 209.672 628.713C208.715 628.942 208.45 629.944 208.875 631.718L211.573 642.954C211.78 643.818 212.036 644.472 212.341 644.917C212.663 645.334 213.115 645.472 213.699 645.332ZM229.579 646.554C227.665 647.014 226.21 646.759 225.212 645.789C224.237 644.813 223.478 643.194 222.934 640.93L218.354 621.852L224.515 620.373L228.801 638.226C228.841 638.389 228.947 638.833 229.121 639.556C229.289 640.256 229.514 640.733 229.797 640.986C230.098 641.21 230.481 641.266 230.948 641.154C231.578 641.002 231.913 640.65 231.953 640.098C231.988 639.522 231.887 638.744 231.652 637.764L231.602 637.553L227.351 619.692L233.442 618.23L239.593 643.854L233.467 645.325L232.812 642.594C232.65 643.769 232.344 644.656 231.896 645.258C231.448 645.859 230.676 646.291 229.579 646.554ZM247.153 642.335C245.659 642.694 244.443 642.616 243.505 642.1C242.584 641.556 241.856 640.732 241.319 639.626C240.8 638.492 240.319 637.003 239.876 635.16L237.173 623.591C236.736 621.771 236.835 620.18 237.471 618.818C238.124 617.427 239.291 616.53 240.971 616.126C242.628 615.728 243.997 615.98 245.077 616.881L243.64 610.895L249.766 609.424L257.027 639.669L250.901 641.139L250.245 638.409C250.136 639.496 249.84 640.37 249.356 641.029C248.891 641.659 248.156 642.094 247.153 642.335ZM248.347 636.977C248.953 636.831 249.28 636.444 249.327 635.816C249.368 635.164 249.268 634.337 249.027 633.333L248.766 632.248L246.455 622.621C246.276 621.875 246.02 621.27 245.686 620.807C245.353 620.344 244.918 620.177 244.381 620.306C243.774 620.451 243.425 620.794 243.333 621.335C243.258 621.846 243.319 622.511 243.515 623.327L246.103 634.109C246.619 636.256 247.366 637.212 248.347 636.977ZM264.587 638.15C263.093 638.508 261.877 638.43 260.939 637.915C260.019 637.371 259.29 636.546 258.753 635.441C258.234 634.307 257.753 632.818 257.311 630.974L254.607 619.405C254.17 617.585 254.27 615.994 254.905 614.632C255.559 613.241 256.725 612.344 258.406 611.941C260.063 611.543 261.431 611.794 262.511 612.695L261.074 606.709L267.2 605.238L274.461 635.483L268.335 636.954L267.68 634.223C267.571 635.311 267.274 636.184 266.791 636.843C266.325 637.473 265.59 637.909 264.587 638.15ZM265.781 632.791C266.388 632.645 266.714 632.258 266.761 631.63C266.802 630.978 266.702 630.151 266.461 629.147L266.201 628.062L263.889 618.436C263.71 617.689 263.454 617.084 263.121 616.621C262.787 616.158 262.352 615.991 261.816 616.12C261.209 616.266 260.859 616.609 260.767 617.149C260.692 617.661 260.753 618.325 260.949 619.142L263.537 629.923C264.053 632.07 264.801 633.026 265.781 632.791ZM270.315 607.564L269.289 603.293L275.415 601.822L276.44 606.093L270.315 607.564ZM276.878 634.903L270.726 609.279L276.852 607.808L283.004 633.432L276.878 634.903ZM279.273 607.227L285.399 605.756L286.181 609.012C286.185 607.9 286.424 606.942 286.898 606.137C287.371 605.332 288.133 604.804 289.183 604.552C290.91 604.137 292.31 604.368 293.385 605.246C294.477 606.094 295.259 607.499 295.729 609.459L300.477 629.237L294.457 630.682L289.86 611.535C289.725 610.974 289.494 610.524 289.165 610.183C288.86 609.837 288.474 609.72 288.007 609.832C287.377 609.983 287.027 610.376 286.957 611.01C286.905 611.615 286.993 612.395 287.223 613.352L291.551 631.38L285.425 632.851L279.273 607.227ZM310.689 630.747C308.869 631.184 307.397 631.377 306.274 631.326C305.18 631.292 304.033 630.987 302.834 630.411L304.085 626.372C305.792 626.9 307.38 626.987 308.85 626.635C309.807 626.405 310.457 625.928 310.802 625.203C311.146 624.479 311.192 623.592 310.94 622.541L310.604 621.141C310.534 623.009 309.449 624.195 307.349 624.699C305.599 625.12 304.161 624.836 303.035 623.847C301.932 622.853 301.143 621.364 300.667 619.38L298.355 609.754C297.812 607.49 297.771 605.674 298.232 604.304C298.711 602.906 299.895 601.98 301.785 601.526C302.882 601.263 303.813 601.335 304.578 601.744C305.36 602.124 305.976 602.791 306.427 603.744L305.738 600.873L312.004 599.369L317.114 620.652C317.803 623.523 317.634 625.748 316.606 627.327C315.578 628.907 313.606 630.047 310.689 630.747ZM308.69 619.491C309.647 619.261 309.918 618.282 309.503 616.556L307.31 607.419C307.187 606.906 306.929 606.449 306.537 606.05C306.145 605.65 305.739 605.501 305.319 605.602C304.782 605.731 304.468 606.016 304.376 606.457C304.279 606.876 304.312 607.423 304.474 608.1L306.668 617.236C306.853 618.006 307.097 618.614 307.402 619.059C307.7 619.481 308.13 619.625 308.69 619.491Z" fill="#255A5C"/>
<rect x="111" y="566.611" width="184.977" height="8" transform="rotate(-13 111 566.611)" fill="#F0F0B7"/>
<rect x="131" y="689.611" width="184.977" height="8" transform="rotate(-13 131 689.611)" fill="#F0F0B7"/>
<defs>
<clipPath id="clip0_12_90">
<rect width="44" height="82" fill="white" transform="translate(200 156)"/>
</clipPath>
</defs>
</svg>
