<svg width="151" height="213" viewBox="0 0 151 213" fill="none" xmlns="http://www.w3.org/2000/svg">
<g clip-path="url(#clip0_101_51)">
<path d="M55.8086 87V1.0625H79.0996C85.3496 1.0625 89.8906 2.59245 92.7227 5.65234C95.5872 8.67969 97.0195 13.6927 97.0195 20.6914V24.4512C97.0195 28.4876 96.2871 31.7591 94.8223 34.2656C93.39 36.7721 91.1927 38.416 88.2305 39.1973C92.1042 40.1738 94.6921 42.4688 95.9941 46.082C97.3288 49.6628 97.9961 54.041 97.9961 59.2168C97.9961 64.7832 97.4753 69.6497 96.4336 73.8164C95.3919 77.9831 93.5039 81.222 90.7695 83.5332C88.0352 85.8444 84.1452 87 79.0996 87H55.8086ZM72.6055 33.4355H76.1211C77.7161 33.4355 78.7415 32.8171 79.1973 31.5801C79.653 30.3431 79.8809 28.862 79.8809 27.1367V18.4941C79.8809 15.7272 78.6602 14.3438 76.2188 14.3438H72.6055V33.4355ZM74.3145 71.8633C78.7741 71.8633 81.0039 69.7474 81.0039 65.5156V54.7734C81.0039 52.332 80.6296 50.4115 79.8809 49.0117C79.1647 47.5794 77.7975 46.8633 75.7793 46.8633H72.6055V71.7656C73.3216 71.8307 73.8913 71.8633 74.3145 71.8633Z" fill="black"/>
<path d="M55.8086 213V127.062H79.0996C85.3496 127.062 89.8906 128.592 92.7227 131.652C95.5872 134.68 97.0195 139.693 97.0195 146.691V150.451C97.0195 154.488 96.2871 157.759 94.8223 160.266C93.39 162.772 91.1927 164.416 88.2305 165.197C92.1042 166.174 94.6921 168.469 95.9941 172.082C97.3288 175.663 97.9961 180.041 97.9961 185.217C97.9961 190.783 97.4753 195.65 96.4336 199.816C95.3919 203.983 93.5039 207.222 90.7695 209.533C88.0352 211.844 84.1452 213 79.0996 213H55.8086ZM72.6055 159.436H76.1211C77.7161 159.436 78.7415 158.817 79.1973 157.58C79.653 156.343 79.8809 154.862 79.8809 153.137V144.494C79.8809 141.727 78.6602 140.344 76.2188 140.344H72.6055V159.436ZM74.3145 197.863C78.7741 197.863 81.0039 195.747 81.0039 191.516V180.773C81.0039 178.332 80.6296 176.411 79.8809 175.012C79.1647 173.579 77.7975 172.863 75.7793 172.863H72.6055V197.766C73.3216 197.831 73.8913 197.863 74.3145 197.863Z" fill="black"/>
<rect y="101" width="151" height="9" fill="black"/>
</g>
<defs>
<clipPath id="clip0_101_51">
<rect width="151" height="213" fill="white"/>
</clipPath>
</defs>
</svg>
