<svg width="403" height="943" viewBox="0 0 403 943" fill="none" xmlns="http://www.w3.org/2000/svg">
<g clip-path="url(#clip0_12_88)">
<path d="M302.364 918.851H141.438C140.985 918.851 140.531 918.821 140.078 918.781C73.6603 912.423 62.7116 852.011 66.197 820.965L66.1452 469.698C66.1452 411.253 79.9574 392.218 84.5182 387.529C114.773 346.747 121.225 297.323 121.277 296.826L147.515 83.0239C148.072 78.3745 153.424 74.7981 159.513 75.4041C165.564 75.8313 170.022 79.9541 169.451 84.6035L143.226 298.436C142.954 300.631 136.191 352.46 103.254 396.48C102.891 396.967 102.464 397.424 101.984 397.851C102.023 397.851 88.198 412.932 88.198 469.708V821.71C88.0814 823.161 80.8644 895.574 142.164 901.962H301.665C362.964 895.564 355.747 823.161 355.67 822.425L355.631 469.708C355.631 418.356 340.626 396.569 340.484 396.361C309.258 359.702 300.939 301.009 300.602 298.525L275.336 85.9248C274.792 81.2754 279.249 77.1625 285.313 76.7452C291.416 76.2882 296.741 79.7554 297.285 84.3949L322.513 296.876C322.564 297.333 330.624 353.92 359.323 387.658C360.425 389.128 377.645 413.23 377.645 469.708V821.71C381.091 852.031 370.142 912.443 303.725 918.791C303.284 918.821 302.818 918.851 302.364 918.851Z" fill="black"/>
<path d="M366.631 480.836H77.1719V497.725H366.631V480.836Z" fill="black"/>
<path d="M366.644 766.417H76.8091V783.315H366.644V766.417Z" fill="black"/>
<path d="M220.761 101.941C220.619 101.941 220.463 101.941 220.308 101.931C216.991 101.832 213.894 100.58 211.912 98.5238L206.794 93.2386L201.87 96.9641C197.776 100.064 191.258 100.223 186.905 97.3317L173.092 88.1521L155.691 93.9738C151.493 95.3746 146.621 94.6295 143.408 92.1458C140.208 89.6423 139.365 85.8871 141.27 82.6981L147.71 71.9687C143.24 63.6634 142.799 51.8015 142.799 51.6525C142.799 38.0023 157.272 26.9153 175.062 26.9153H268.715C286.505 26.9153 300.978 38.0123 300.978 51.6525C300.978 51.8015 300.551 63.6534 296.08 71.9588L302.909 83.2544C304.217 84.6452 304.995 86.354 304.995 88.2018C304.995 92.8711 300.058 96.6462 293.968 96.6462C293.904 96.6462 293.826 96.6462 293.748 96.6462C292.025 96.6462 290.289 96.3482 288.695 95.7124L270.296 88.4204L256.872 97.3416C252.532 100.223 246.002 100.054 241.907 96.974L236.284 92.7121L229.028 99.0603C226.955 100.898 223.923 101.941 220.761 101.941ZM208.089 71.9588C208.361 71.9588 208.646 71.9588 208.932 71.9786C212.119 72.1674 215.034 73.4092 216.939 75.3663L221.474 80.0554L227.434 74.8298C229.429 73.0814 232.293 72.0382 235.325 71.9588C238.357 71.7899 241.298 72.7535 243.462 74.3828L250.161 79.4594L261.511 71.8992C264.66 69.803 269.065 69.2764 272.835 70.4487C273.159 68.6704 274.222 66.9915 275.958 65.6702C276.93 64.18 278.951 55.4276 278.951 51.6624C278.951 47.3409 274.364 43.8141 268.728 43.8141H175.075C169.439 43.8141 164.839 47.3309 164.839 51.6624C164.839 55.4276 166.873 64.18 168.467 66.2464C170.073 67.4783 170.942 68.879 171.188 70.3792C174.958 69.2864 179.208 69.8725 182.279 71.8992L193.629 79.4594L200.328 74.3828C202.414 72.8231 205.187 71.9588 208.089 71.9588Z" fill="black"/>
<rect x="88" y="498" width="268" height="268" fill="#B7D8EE"/>
<path d="M103.58 762.27C102.76 762.27 102.06 762.13 101.48 761.85C100.91 761.56 100.445 761.17 100.085 760.68C99.735 760.19 99.48 759.625 99.32 758.985C99.16 758.335 99.08 757.65 99.08 756.93V756.12C99.08 755.11 99.235 754.2 99.545 753.39C99.865 752.58 100.355 751.94 101.015 751.47C101.685 750.99 102.54 750.75 103.58 750.75C104.62 750.75 105.47 750.99 106.13 751.47C106.79 751.94 107.275 752.58 107.585 753.39C107.905 754.2 108.065 755.11 108.065 756.12V756.93C108.065 757.65 107.985 758.335 107.825 758.985C107.665 759.625 107.405 760.19 107.045 760.68C106.695 761.17 106.235 761.56 105.665 761.85C105.095 762.13 104.4 762.27 103.58 762.27ZM103.58 760.95C104.62 760.95 105.38 760.6 105.86 759.9C106.35 759.19 106.595 758.07 106.595 756.54C106.595 754.94 106.345 753.795 105.845 753.105C105.355 752.415 104.6 752.07 103.58 752.07C102.55 752.07 101.785 752.415 101.285 753.105C100.795 753.795 100.55 754.93 100.55 756.51C100.55 758.05 100.795 759.175 101.285 759.885C101.775 760.595 102.54 760.95 103.58 760.95ZM110.692 764.355L109.537 763.92L110.932 760.05L112.117 760.5L110.692 764.355ZM117.558 762.27C116.738 762.27 116.043 762.11 115.473 761.79C114.903 761.47 114.468 761.045 114.168 760.515C113.878 759.985 113.733 759.41 113.733 758.79H115.143C115.143 759.47 115.358 760.01 115.788 760.41C116.228 760.81 116.818 761.01 117.558 761.01C118.048 761.01 118.473 760.92 118.833 760.74C119.193 760.56 119.473 760.305 119.673 759.975C119.873 759.635 119.973 759.24 119.973 758.79C119.973 758.11 119.753 757.56 119.313 757.14C118.883 756.72 118.303 756.51 117.573 756.51C117.263 756.51 116.993 756.55 116.763 756.63C116.543 756.7 116.348 756.79 116.178 756.9L115.458 755.61L119.643 752.55L119.493 752.28H114.168V751.05H120.843V753.045L117.378 755.565L116.328 755.61C116.498 755.55 116.683 755.5 116.883 755.46C117.093 755.42 117.338 755.4 117.618 755.4C118.418 755.4 119.098 755.55 119.658 755.85C120.218 756.15 120.643 756.55 120.933 757.05C121.233 757.55 121.383 758.095 121.383 758.685V758.895C121.383 759.475 121.233 760.025 120.933 760.545C120.643 761.055 120.213 761.47 119.643 761.79C119.083 762.11 118.388 762.27 117.558 762.27ZM126.052 762L130.192 751.05H131.332L127.192 762H126.052ZM125.242 756.93C124.672 756.93 124.207 756.8 123.847 756.54C123.497 756.28 123.237 755.935 123.067 755.505C122.907 755.075 122.827 754.61 122.827 754.11V753.72C122.827 753.18 122.912 752.7 123.082 752.28C123.252 751.85 123.517 751.515 123.877 751.275C124.237 751.025 124.692 750.9 125.242 750.9C125.802 750.9 126.257 751.025 126.607 751.275C126.967 751.515 127.232 751.85 127.402 752.28C127.572 752.7 127.657 753.18 127.657 753.72V754.11C127.657 754.61 127.572 755.075 127.402 755.505C127.242 755.935 126.987 756.28 126.637 756.54C126.287 756.8 125.822 756.93 125.242 756.93ZM125.242 755.94C125.702 755.94 126.042 755.775 126.262 755.445C126.492 755.105 126.607 754.6 126.607 753.93C126.607 753.22 126.492 752.705 126.262 752.385C126.032 752.055 125.692 751.89 125.242 751.89C124.792 751.89 124.452 752.055 124.222 752.385C123.992 752.705 123.877 753.215 123.877 753.915C123.877 754.585 123.987 755.09 124.207 755.43C124.437 755.77 124.782 755.94 125.242 755.94ZM132.082 762.15C131.512 762.15 131.047 762.02 130.687 761.76C130.337 761.5 130.077 761.155 129.907 760.725C129.747 760.295 129.667 759.83 129.667 759.33V758.94C129.667 758.4 129.752 757.92 129.922 757.5C130.092 757.07 130.357 756.735 130.717 756.495C131.077 756.245 131.532 756.12 132.082 756.12C132.642 756.12 133.097 756.245 133.447 756.495C133.807 756.735 134.072 757.07 134.242 757.5C134.412 757.92 134.497 758.4 134.497 758.94V759.33C134.497 759.83 134.412 760.295 134.242 760.725C134.082 761.155 133.827 761.5 133.477 761.76C133.127 762.02 132.662 762.15 132.082 762.15ZM132.082 761.16C132.542 761.16 132.882 760.995 133.102 760.665C133.332 760.325 133.447 759.82 133.447 759.15C133.447 758.44 133.332 757.925 133.102 757.605C132.872 757.275 132.532 757.11 132.082 757.11C131.632 757.11 131.292 757.275 131.062 757.605C130.832 757.925 130.717 758.435 130.717 759.135C130.717 759.805 130.827 760.31 131.047 760.65C131.277 760.99 131.622 761.16 132.082 761.16Z" fill="black"/>
<path d="M314.485 762.27C313.665 762.27 312.97 762.11 312.4 761.79C311.83 761.47 311.395 761.045 311.095 760.515C310.805 759.985 310.66 759.41 310.66 758.79H312.07C312.07 759.47 312.285 760.01 312.715 760.41C313.155 760.81 313.745 761.01 314.485 761.01C314.975 761.01 315.4 760.92 315.76 760.74C316.12 760.56 316.4 760.305 316.6 759.975C316.8 759.635 316.9 759.24 316.9 758.79C316.9 758.11 316.68 757.56 316.24 757.14C315.81 756.72 315.23 756.51 314.5 756.51C314.19 756.51 313.92 756.55 313.69 756.63C313.47 756.7 313.275 756.79 313.105 756.9L312.385 755.61L316.57 752.55L316.42 752.28H311.095V751.05H317.77V753.045L314.305 755.565L313.255 755.61C313.425 755.55 313.61 755.5 313.81 755.46C314.02 755.42 314.265 755.4 314.545 755.4C315.345 755.4 316.025 755.55 316.585 755.85C317.145 756.15 317.57 756.55 317.86 757.05C318.16 757.55 318.31 758.095 318.31 758.685V758.895C318.31 759.475 318.16 760.025 317.86 760.545C317.57 761.055 317.14 761.47 316.57 761.79C316.01 762.11 315.315 762.27 314.485 762.27ZM323.699 762.27C322.879 762.27 322.184 762.11 321.614 761.79C321.044 761.47 320.609 761.045 320.309 760.515C320.019 759.985 319.874 759.41 319.874 758.79H321.284C321.284 759.47 321.499 760.01 321.929 760.41C322.369 760.81 322.959 761.01 323.699 761.01C324.189 761.01 324.614 760.92 324.974 760.74C325.334 760.56 325.614 760.305 325.814 759.975C326.014 759.635 326.114 759.24 326.114 758.79C326.114 758.11 325.894 757.56 325.454 757.14C325.024 756.72 324.444 756.51 323.714 756.51C323.404 756.51 323.134 756.55 322.904 756.63C322.684 756.7 322.489 756.79 322.319 756.9L321.599 755.61L325.784 752.55L325.634 752.28H320.309V751.05H326.984V753.045L323.519 755.565L322.469 755.61C322.639 755.55 322.824 755.5 323.024 755.46C323.234 755.42 323.479 755.4 323.759 755.4C324.559 755.4 325.239 755.55 325.799 755.85C326.359 756.15 326.784 756.55 327.074 757.05C327.374 757.55 327.524 758.095 327.524 758.685V758.895C327.524 759.475 327.374 760.025 327.074 760.545C326.784 761.055 326.354 761.47 325.784 761.79C325.224 762.11 324.529 762.27 323.699 762.27ZM336.656 762.27C335.966 762.27 335.366 762.15 334.856 761.91C334.356 761.67 333.941 761.35 333.611 760.95C333.281 760.54 333.031 760.09 332.861 759.6C332.701 759.11 332.621 758.62 332.621 758.13V757.86C332.621 757.35 332.701 756.85 332.861 756.36C333.031 755.87 333.281 755.43 333.611 755.04C333.951 754.64 334.371 754.32 334.871 754.08C335.371 753.84 335.956 753.72 336.626 753.72C337.296 753.72 337.896 753.845 338.426 754.095C338.966 754.345 339.396 754.7 339.716 755.16C340.046 755.61 340.231 756.145 340.271 756.765H338.891C338.821 756.265 338.591 755.85 338.201 755.52C337.811 755.18 337.286 755.01 336.626 755.01C336.056 755.01 335.581 755.14 335.201 755.4C334.821 755.66 334.536 756.015 334.346 756.465C334.156 756.915 334.061 757.425 334.061 757.995C334.061 758.545 334.156 759.05 334.346 759.51C334.536 759.96 334.821 760.32 335.201 760.59C335.591 760.85 336.076 760.98 336.656 760.98C337.106 760.98 337.496 760.9 337.826 760.74C338.156 760.58 338.421 760.365 338.621 760.095C338.821 759.825 338.941 759.52 338.981 759.18H340.361C340.331 759.81 340.146 760.355 339.806 760.815C339.476 761.275 339.036 761.635 338.486 761.895C337.946 762.145 337.336 762.27 336.656 762.27ZM342.408 762V751.05H343.848V762H342.408ZM341.298 752.19V751.05H343.848V752.19H341.298Z" fill="black"/>
<path d="M147.809 673V587.062H170.514C175.266 587.062 179.026 588.12 181.793 590.236C184.592 592.352 186.594 595.363 187.799 599.27C189.003 603.176 189.605 607.831 189.605 613.234C189.605 618.443 189.101 622.984 188.092 626.857C187.083 630.699 185.276 633.677 182.672 635.793C180.1 637.909 176.438 638.967 171.686 638.967H164.703V673H147.809ZM164.703 623.537H165.68C168.87 623.537 170.823 622.642 171.539 620.852C172.255 619.061 172.613 616.424 172.613 612.941C172.613 609.686 172.255 607.18 171.539 605.422C170.855 603.632 169.212 602.736 166.607 602.736H164.703V623.537ZM194.293 673V587.062H210.895V673H194.293ZM217.73 673V587.062H234.918V658.352H252.594V673H217.73ZM277.887 673.781C270.042 673.781 264.378 671.828 260.895 667.922C257.444 664.016 255.719 657.798 255.719 649.27V640.871H272.711V651.613C272.711 653.599 273.004 655.161 273.59 656.301C274.208 657.408 275.266 657.961 276.764 657.961C278.326 657.961 279.4 657.505 279.986 656.594C280.605 655.682 280.914 654.185 280.914 652.102C280.914 649.465 280.654 647.268 280.133 645.51C279.612 643.719 278.701 642.027 277.398 640.432C276.129 638.804 274.355 636.916 272.076 634.768L264.361 627.443C258.6 622.007 255.719 615.79 255.719 608.791C255.719 601.467 257.411 595.884 260.797 592.043C264.215 588.202 269.146 586.281 275.592 586.281C283.469 586.281 289.052 588.381 292.34 592.58C295.66 596.779 297.32 603.16 297.32 611.721H279.84V605.812C279.84 604.641 279.498 603.729 278.814 603.078C278.163 602.427 277.268 602.102 276.129 602.102C274.762 602.102 273.753 602.492 273.102 603.273C272.483 604.022 272.174 604.999 272.174 606.203C272.174 607.408 272.499 608.71 273.15 610.109C273.801 611.509 275.087 613.12 277.008 614.943L286.92 624.465C288.906 626.353 290.729 628.355 292.389 630.471C294.049 632.554 295.383 634.995 296.393 637.795C297.402 640.562 297.906 643.947 297.906 647.951C297.906 656.024 296.409 662.355 293.414 666.945C290.452 671.503 285.276 673.781 277.887 673.781Z" fill="#F9D5DE"/>
<path d="M139.68 737.92V736.2H142.94C143.633 736.2 144.207 736.067 144.66 735.8C145.113 735.52 145.453 735.147 145.68 734.68C145.92 734.213 146.04 733.693 146.04 733.12C146.04 732.533 145.92 732.007 145.68 731.54C145.453 731.073 145.113 730.707 144.66 730.44C144.207 730.173 143.633 730.04 142.94 730.04H139.68V728.32H142.58C143.78 728.32 144.78 728.513 145.58 728.9C146.393 729.273 147.007 729.807 147.42 730.5C147.833 731.193 148.04 732.013 148.04 732.96V733.28C148.04 734.213 147.833 735.033 147.42 735.74C147.007 736.433 146.393 736.973 145.58 737.36C144.78 737.733 143.78 737.92 142.58 737.92H139.68ZM138.12 743V728.32H140.08V743H138.12ZM150.913 743V728.32H152.873V743H150.913ZM159.933 743L155.093 736.5H157.393L162.313 743H159.933ZM152.133 737.72V735.98H156.053C156.666 735.98 157.193 735.853 157.633 735.6C158.073 735.347 158.413 735 158.653 734.56C158.893 734.107 159.013 733.593 159.013 733.02C159.013 732.447 158.893 731.94 158.653 731.5C158.413 731.047 158.073 730.693 157.633 730.44C157.193 730.173 156.666 730.04 156.053 730.04H152.133V728.32H155.693C156.76 728.32 157.693 728.48 158.493 728.8C159.293 729.12 159.913 729.613 160.353 730.28C160.793 730.947 161.013 731.807 161.013 732.86V733.18C161.013 734.233 160.786 735.093 160.333 735.76C159.893 736.427 159.273 736.92 158.473 737.24C157.686 737.56 156.76 737.72 155.693 737.72H152.133ZM164.917 743V728.4H166.877V743H164.917ZM166.477 743V741.24H173.557V743H166.477ZM166.477 736.46V734.7H172.937V736.46H166.477ZM166.477 730.16V728.4H173.357V730.16H166.477ZM176.909 743V728.4H179.509L183.829 738.14H184.149L188.449 728.4H191.069V743H189.109V730.54L189.249 730.58L185.109 739.98H182.709L178.549 730.58L178.709 730.54V743H176.909ZM195.348 743V728.4H197.308V743H195.348ZM207.377 743.36C206.057 743.36 204.943 743.107 204.037 742.6C203.143 742.08 202.463 741.36 201.997 740.44C201.543 739.507 201.317 738.427 201.317 737.2V728.4H203.277V737.44C203.277 738.253 203.43 738.973 203.737 739.6C204.057 740.213 204.523 740.693 205.137 741.04C205.75 741.387 206.497 741.56 207.377 741.56C208.257 741.56 208.997 741.393 209.597 741.06C210.21 740.713 210.67 740.233 210.977 739.62C211.297 738.993 211.457 738.267 211.457 737.44V728.4H213.417V737.2C213.417 738.427 213.19 739.507 212.737 740.44C212.283 741.36 211.61 742.08 210.717 742.6C209.823 743.107 208.71 743.36 207.377 743.36ZM217.378 743V728.4H219.978L224.298 738.14H224.618L228.918 728.4H231.538V743H229.578V730.54L229.718 730.58L225.578 739.98H223.178L219.018 730.58L219.178 730.54V743H217.378ZM240.327 743V728.4H242.287V743H240.327ZM241.887 743V741.24H248.567V743H241.887ZM249.88 743L255.14 728.4H258.46L263.88 743H261.86L256.96 729.68L257.92 730.16H255.56L256.58 729.68L251.84 743H249.88ZM253.02 738.64L253.68 736.88H259.98L260.64 738.64H253.02ZM272.609 743.36C271.475 743.36 270.449 743.173 269.529 742.8C268.609 742.427 267.815 741.9 267.149 741.22C266.495 740.54 265.989 739.74 265.629 738.82C265.269 737.887 265.089 736.873 265.089 735.78V735.34C265.089 734.407 265.249 733.507 265.569 732.64C265.902 731.76 266.375 730.973 266.989 730.28C267.615 729.573 268.375 729.02 269.269 728.62C270.162 728.207 271.169 728 272.289 728C273.502 728 274.582 728.233 275.529 728.7C276.475 729.153 277.235 729.793 277.809 730.62C278.382 731.433 278.715 732.38 278.809 733.46H276.809C276.715 732.647 276.449 731.973 276.009 731.44C275.569 730.893 275.022 730.487 274.369 730.22C273.729 729.94 273.035 729.8 272.289 729.8C271.529 729.8 270.829 729.94 270.189 730.22C269.549 730.487 268.995 730.873 268.529 731.38C268.075 731.887 267.722 732.493 267.469 733.2C267.215 733.907 267.089 734.7 267.089 735.58C267.089 736.58 267.222 737.46 267.489 738.22C267.769 738.967 268.155 739.593 268.649 740.1C269.142 740.593 269.722 740.967 270.389 741.22C271.069 741.473 271.809 741.6 272.609 741.6C273.742 741.6 274.735 741.373 275.589 740.92C276.455 740.453 277.109 739.853 277.549 739.12L276.829 741.5V737.16H278.669V740.64C278.015 741.493 277.175 742.16 276.149 742.64C275.122 743.12 273.942 743.36 272.609 743.36ZM272.089 737.56V735.92H279.909V737.56H272.089ZM282.71 743V728.4H284.67V743H282.71ZM284.27 743V741.24H291.35V743H284.27ZM284.27 736.46V734.7H290.73V736.46H284.27ZM284.27 730.16V728.4H291.15V730.16H284.27ZM294.702 743V728.32H296.662V743H294.702ZM303.722 743L298.882 736.5H301.182L306.102 743H303.722ZM295.922 737.72V735.98H299.842C300.455 735.98 300.982 735.853 301.422 735.6C301.862 735.347 302.202 735 302.442 734.56C302.682 734.107 302.802 733.593 302.802 733.02C302.802 732.447 302.682 731.94 302.442 731.5C302.202 731.047 301.862 730.693 301.422 730.44C300.982 730.173 300.455 730.04 299.842 730.04H295.922V728.32H299.482C300.549 728.32 301.482 728.48 302.282 728.8C303.082 729.12 303.702 729.613 304.142 730.28C304.582 730.947 304.802 731.807 304.802 732.86V733.18C304.802 734.233 304.575 735.093 304.122 735.76C303.682 736.427 303.062 736.92 302.262 737.24C301.475 737.56 300.549 737.72 299.482 737.72H295.922Z" fill="black"/>
<line x1="98" y1="736" x2="133" y2="736" stroke="black" stroke-width="2"/>
<line x1="311" y1="736" x2="346" y2="736" stroke="black" stroke-width="2"/>
<g clip-path="url(#clip1_12_88)">
<rect x="200" y="210" width="44" height="3" fill="black"/>
<path d="M213.523 205V170.625H222.84C225.34 170.625 227.156 171.237 228.289 172.461C229.435 173.672 230.008 175.677 230.008 178.477V179.98C230.008 181.595 229.715 182.904 229.129 183.906C228.556 184.909 227.677 185.566 226.492 185.879C228.042 186.27 229.077 187.188 229.598 188.633C230.132 190.065 230.398 191.816 230.398 193.887C230.398 196.113 230.19 198.06 229.773 199.727C229.357 201.393 228.602 202.689 227.508 203.613C226.414 204.538 224.858 205 222.84 205H213.523ZM220.242 183.574H221.648C222.286 183.574 222.697 183.327 222.879 182.832C223.061 182.337 223.152 181.745 223.152 181.055V177.598C223.152 176.491 222.664 175.938 221.688 175.938H220.242V183.574ZM220.926 198.945C222.71 198.945 223.602 198.099 223.602 196.406V192.109C223.602 191.133 223.452 190.365 223.152 189.805C222.866 189.232 222.319 188.945 221.512 188.945H220.242V198.906C220.529 198.932 220.757 198.945 220.926 198.945Z" fill="black"/>
<path d="M213.523 251V216.625H222.84C225.34 216.625 227.156 217.237 228.289 218.461C229.435 219.672 230.008 221.677 230.008 224.477V225.98C230.008 227.595 229.715 228.904 229.129 229.906C228.556 230.909 227.677 231.566 226.492 231.879C228.042 232.27 229.077 233.188 229.598 234.633C230.132 236.065 230.398 237.816 230.398 239.887C230.398 242.113 230.19 244.06 229.773 245.727C229.357 247.393 228.602 248.689 227.508 249.613C226.414 250.538 224.858 251 222.84 251H213.523ZM220.242 229.574H221.648C222.286 229.574 222.697 229.327 222.879 228.832C223.061 228.337 223.152 227.745 223.152 227.055V223.598C223.152 222.491 222.664 221.938 221.688 221.938H220.242V229.574ZM220.926 244.945C222.71 244.945 223.602 244.099 223.602 242.406V238.109C223.602 237.133 223.452 236.365 223.152 235.805C222.866 235.232 222.319 234.945 221.512 234.945H220.242V244.906C220.529 244.932 220.757 244.945 220.926 244.945Z" fill="black"/>
</g>
</g>
<defs>
<clipPath id="clip0_12_88">
<rect width="403" height="943" fill="white"/>
</clipPath>
<clipPath id="clip1_12_88">
<rect width="44" height="82" fill="white" transform="translate(200 169)"/>
</clipPath>
</defs>
</svg>
