<svg width="171" height="38" viewBox="0 0 171 38" fill="none" xmlns="http://www.w3.org/2000/svg">
<path d="M0 25C0 11.1929 11.1929 0 25 0H171V13C171 26.8071 159.807 38 146 38H0V25Z" fill="#255A5C"/>
<path d="M51.048 27.342C49.86 27.342 48.858 27.156 48.042 26.784C47.226 26.4 46.608 25.884 46.188 25.236C45.768 24.576 45.558 23.82 45.558 22.968H48.42C48.42 23.304 48.51 23.616 48.69 23.904C48.882 24.192 49.17 24.426 49.554 24.606C49.938 24.774 50.436 24.858 51.048 24.858C51.6 24.858 52.062 24.786 52.434 24.642C52.806 24.498 53.088 24.3 53.28 24.048C53.472 23.784 53.568 23.484 53.568 23.148C53.568 22.728 53.388 22.398 53.028 22.158C52.668 21.906 52.086 21.744 51.282 21.672L50.292 21.582C48.984 21.474 47.94 21.066 47.16 20.358C46.38 19.65 45.99 18.714 45.99 17.55C45.99 16.71 46.188 15.984 46.584 15.372C46.992 14.76 47.556 14.292 48.276 13.968C48.996 13.632 49.848 13.464 50.832 13.464C51.864 13.464 52.746 13.644 53.478 14.004C54.222 14.352 54.792 14.85 55.188 15.498C55.584 16.134 55.782 16.884 55.782 17.748H52.902C52.902 17.424 52.824 17.13 52.668 16.866C52.512 16.59 52.278 16.368 51.966 16.2C51.666 16.032 51.288 15.948 50.832 15.948C50.4 15.948 50.034 16.02 49.734 16.164C49.446 16.308 49.23 16.506 49.086 16.758C48.942 16.998 48.87 17.262 48.87 17.55C48.87 17.922 49.002 18.246 49.266 18.522C49.53 18.798 49.962 18.96 50.562 19.008L51.57 19.098C52.53 19.182 53.376 19.392 54.108 19.728C54.84 20.052 55.41 20.502 55.818 21.078C56.238 21.642 56.448 22.332 56.448 23.148C56.448 23.988 56.226 24.726 55.782 25.362C55.35 25.986 54.732 26.472 53.928 26.82C53.124 27.168 52.164 27.342 51.048 27.342ZM58.5179 27V13.86H61.4699V27H58.5179ZM70.6864 27.342C69.5104 27.342 68.4844 27.15 67.6084 26.766C66.7324 26.37 66.0064 25.842 65.4304 25.182C64.8664 24.522 64.4464 23.79 64.1704 22.986C63.8944 22.182 63.7564 21.378 63.7564 20.574V20.178C63.7564 19.35 63.8944 18.54 64.1704 17.748C64.4464 16.956 64.8604 16.236 65.4124 15.588C65.9764 14.94 66.6724 14.424 67.5004 14.04C68.3404 13.656 69.3064 13.464 70.3984 13.464C71.5864 13.464 72.6364 13.686 73.5484 14.13C74.4604 14.562 75.1924 15.168 75.7444 15.948C76.2964 16.716 76.6144 17.61 76.6984 18.63H73.7464C73.6744 18.15 73.4824 17.73 73.1704 17.37C72.8704 17.01 72.4804 16.728 72.0004 16.524C71.5324 16.32 70.9984 16.218 70.3984 16.218C69.8224 16.218 69.3064 16.32 68.8504 16.524C68.4064 16.728 68.0224 17.016 67.6984 17.388C67.3864 17.76 67.1464 18.204 66.9784 18.72C66.8224 19.224 66.7444 19.782 66.7444 20.394C66.7444 21.03 66.8284 21.612 66.9964 22.14C67.1764 22.656 67.4344 23.106 67.7704 23.49C68.1064 23.862 68.5204 24.15 69.0124 24.354C69.5164 24.558 70.0744 24.66 70.6864 24.66C71.5024 24.66 72.2104 24.492 72.8104 24.156C73.4104 23.82 73.8424 23.376 74.1064 22.824L73.7464 24.84V21.708H76.4644V24.516C75.9004 25.428 75.1204 26.13 74.1244 26.622C73.1404 27.102 71.9944 27.342 70.6864 27.342ZM70.3084 22.284V20.16H77.5444V22.284H70.3084ZM79.4526 27V13.86H84.2946L89.2446 24.606H89.8566L89.4966 24.93V13.86H92.2686V27H87.3906L82.4406 16.254H81.8286L82.1886 15.93V27H79.4526ZM104.507 27.342C103.271 27.342 102.221 27.114 101.357 26.658C100.505 26.19 99.8574 25.53 99.4134 24.678C98.9694 23.826 98.7474 22.818 98.7474 21.654V13.86H101.699V21.762C101.699 22.338 101.807 22.842 102.023 23.274C102.251 23.694 102.569 24.018 102.977 24.246C103.397 24.474 103.907 24.588 104.507 24.588C105.119 24.588 105.629 24.474 106.037 24.246C106.457 24.018 106.775 23.694 106.991 23.274C107.207 22.854 107.315 22.35 107.315 21.762V13.86H110.267V21.654C110.267 22.818 110.045 23.826 109.601 24.678C109.157 25.53 108.509 26.19 107.657 26.658C106.805 27.114 105.755 27.342 104.507 27.342ZM115.566 23.238V20.682H117.924C118.38 20.682 118.77 20.592 119.094 20.412C119.43 20.232 119.688 19.98 119.868 19.656C120.048 19.32 120.138 18.936 120.138 18.504C120.138 18.048 120.048 17.658 119.868 17.334C119.688 16.998 119.43 16.746 119.094 16.578C118.77 16.398 118.38 16.308 117.924 16.308H115.566V13.752H117.78C118.896 13.752 119.85 13.938 120.642 14.31C121.446 14.682 122.058 15.21 122.478 15.894C122.91 16.578 123.126 17.4 123.126 18.36V18.648C123.126 19.584 122.91 20.4 122.478 21.096C122.058 21.78 121.446 22.308 120.642 22.68C119.85 23.052 118.896 23.238 117.78 23.238H115.566ZM112.974 27V13.752H115.926V27H112.974Z" fill="white"/>
</svg>
